<svg width="320" height="75" viewBox="0 0 320 75" fill="none" xmlns="http://www.w3.org/2000/svg">
<path fill-rule="evenodd" clip-rule="evenodd" d="M27.412 35.5417C28.5584 36.3678 27.3031 41.501 27.1036 41.5736C25.9151 42.0061 21.7254 43.8402 18.4911 41.7886C18.2439 41.6319 20.1586 37.3047 19.6348 34.5574C19.5781 34.2619 23.4695 32.7019 27.412 35.5417Z" fill="#08ADD7"/>
<path fill-rule="evenodd" clip-rule="evenodd" d="M30.4766 32.9172C32.2772 34.975 37.7436 38.3687 50.0676 35.7196C50.1668 35.6982 51.4074 38.8678 51.4074 38.8678C51.4074 38.8678 44.3466 47.0724 28.5881 41.5538C28.5535 41.5416 29.8916 36.4044 28.745 35.1244C28.6864 35.0586 30.0172 32.3922 30.4766 32.9172Z" fill="#08ADD7"/>
<path fill-rule="evenodd" clip-rule="evenodd" d="M19.2191 33.1425C17.5938 30.5759 16.615 27.4653 18.4137 23.7167C21.2904 17.7218 26.1357 14.6112 33.7129 15.6849C40.7981 16.6892 48.9776 23.0655 48.9136 23.326C47.7036 28.2459 49.5583 34.2276 49.5583 34.2276C49.5583 34.2276 38.3062 37.8325 31.1641 31.6098C29.0613 29.778 27.9525 34.1282 27.5277 33.8881C23.3114 31.5059 19.2191 33.1425 19.2191 33.1425Z" fill="#A05AA0"/>
<path fill-rule="evenodd" clip-rule="evenodd" d="M61.5975 25.7144L66.7902 27.8053C66.7902 27.8053 71.3938 34.8337 70.4767 39.6754C69.5591 44.5168 58.1067 41.9309 58.1248 41.8572L61.5975 25.7144Z" fill="#F9D500"/>
<path fill-rule="evenodd" clip-rule="evenodd" d="M56.7394 41.3691C56.7394 41.3691 52.4072 40.0203 50.8503 31.3482C50.3145 28.3639 50.1893 24.8464 51.7171 20.8056C56.2951 8.69375 69.8815 22.8211 69.6446 23.1823L67.4712 26.5869L60.5506 23.7468L56.7394 41.3691Z" fill="#378FCE"/>
<path fill-rule="evenodd" clip-rule="evenodd" d="M60.6706 52.4832C60.7178 52.4672 63.3433 56.7066 63.3422 61.362C63.34 66.3617 59.9379 68.8656 60.3307 73.4456C60.7237 78.0256 49.8485 71.09 49.8485 70.436C49.8485 69.7813 53.0707 66.7465 53.3861 63.6314C53.8403 59.144 49.6998 52.4959 49.7699 52.5309C51.9454 53.6136 57.3566 53.623 60.6706 52.4832Z" fill="#A05AA0"/>
<path fill-rule="evenodd" clip-rule="evenodd" d="M64.1843 62.3519C64.1432 59.9385 64.4762 57.5443 61.6181 52.048C61.607 52.0266 63.2199 46.5208 63.2503 46.588C66.7223 54.2258 71.4838 57.192 69.6421 62.6648C67.9711 67.6317 67.1429 69.6409 67.3122 70.9209C67.6065 73.1457 66.4363 73.0578 65.4044 72.585C64.2123 72.0381 61.8115 71.2208 61.4572 70.6089C61.0312 69.8732 64.2361 65.3726 64.1843 62.3519Z" fill="#AAC92A"/>
<path fill-rule="evenodd" clip-rule="evenodd" d="M17.9352 42.8709C20.3822 44.7992 25.5748 43.5086 26.7455 43.0273C27.8108 42.5894 31.3035 44.7795 36.857 45.1964C43.5903 45.7024 48.0747 43.6284 52.3084 40.0961C52.6374 39.8215 53.4068 44.1997 62.7386 44.1046L60.5769 51.5389C60.5769 51.5389 52.0308 53.4137 49.1781 50.9507C47.3879 49.4046 47.2992 50.1495 39.9379 50.4351C32.5713 50.721 25.9735 44.7511 23.746 46.2909C21.5185 47.8307 18.9582 45.4837 18.6138 45.1105C17.3919 43.7868 17.7644 42.7363 17.9352 42.8709Z" fill="#552542"/>
<path fill-rule="evenodd" clip-rule="evenodd" d="M0.011742 50.3784C-0.250289 47.4996 3.94268 47.8922 5.64589 45.6676C7.34909 43.443 11.1408 40.1304 12.59 38.2088C13.1648 37.447 18.4864 39.5175 17.0452 42.1346C15.6038 44.7519 19.6657 46.4529 16.7832 46.9763C13.9003 47.4996 11.9351 52.8055 10.6247 55.031C9.31433 57.2567 9.18261 57.723 6.82503 57.183C4.78053 56.7143 0.273773 53.2572 0.011742 50.3784Z" fill="#378FCE"/>
<path fill-rule="evenodd" clip-rule="evenodd" d="M66.5767 18.4786C66.5767 18.4786 71.9457 13.9782 76.4002 14.9712C80.8555 15.9636 82.4016 18.6951 83.7378 20.5349C85.1026 22.413 86.2274 24.8619 90.0273 23.0301C93.8272 21.1978 93.9578 12.6926 96.7096 7.32751C99.4614 1.96223 106.953 5.13254 109.419 1.06136C111.886 -3.01005 107.396 5.64299 107.716 9.96388C107.929 12.8424 101.858 8.21664 101.858 10.5201C101.858 12.8236 103.224 19.0771 101.427 23.4226C99.6291 27.7682 95.9319 32.1455 91.468 32.2194C85.8376 32.3127 83.779 28.0693 80.9209 28.526C79.2828 28.7879 77.0553 30.8711 75.2211 27.7682C73.3869 24.6655 71.7293 29.8798 73.736 32.3869C75.5325 34.6317 71.4765 33.7835 71.4732 33.768C70.8411 30.5206 68.2436 27.4142 68.2766 27.3484C69.2934 25.3233 71.1521 22.9935 71.1521 22.9935L66.5767 18.4786Z" fill="#552542"/>
<path fill-rule="evenodd" clip-rule="evenodd" d="M100.744 30.19C100.744 30.19 96.5599 37.7923 88.257 36.3063C81.4524 35.0883 79.5037 30.9812 79.5037 30.9812L80.6122 30.5142C80.6122 30.5142 81.9142 29.6497 82.8673 30.3152C84.4512 31.4219 87.7323 34.6671 93.2384 33.6439C97.1409 32.918 100.744 30.19 100.744 30.19Z" fill="#F9D500"/>
<path fill-rule="evenodd" clip-rule="evenodd" d="M85.7338 36.8906C82.4015 41.3489 71.8996 40.5913 71.917 40.5187C72.4027 38.5117 71.9339 35.869 71.662 35.0597C71.634 34.977 76.0951 35.4976 76.2868 34.4659C76.379 33.9676 75.512 32.978 74.9746 32.2054C73.9909 30.7922 73.9975 29.4619 74.204 28.6926C74.6238 27.1323 75.2032 31.3097 78.1834 31.4137C78.1834 31.4137 78.9664 33.7029 82.4013 35.6404C84.3929 36.7642 85.9422 36.6118 85.7338 36.8906Z" fill="#08ADD7"/>
<path fill-rule="evenodd" clip-rule="evenodd" d="M68.4939 15.8274L65.7376 17.5603C58.8613 12.0701 53.2742 15.9197 53.2742 15.9197C53.2742 15.9197 55.6981 12.954 60.5464 13.2157C65.3942 13.4776 68.4939 15.8274 68.4939 15.8274Z" fill="#552542"/>
<path fill-rule="evenodd" clip-rule="evenodd" d="M25.7781 47.3757C25.7781 47.3757 30.4114 50.3995 36.0769 51.2839C37.3964 51.4899 35.9256 56.9545 35.7438 58.2731C35.2197 62.068 39.32 61.3706 36.8305 63.8563C34.341 66.3426 27.0728 63.9531 25.8242 61.3706C24.9706 59.6048 25.6598 58.9386 26.3483 55.0311C27.2285 50.0344 25.7781 47.3757 25.7781 47.3757Z" fill="#AAC92A"/>
<path fill-rule="evenodd" clip-rule="evenodd" d="M30.9845 11.0884C39.1204 10.8969 51.0257 18.3289 50.9678 18.3848C49.7729 19.545 49.5631 21.7416 49.4076 21.6148C43.4369 16.743 35.8358 12.4313 27.5931 14.0066C19.087 15.6326 16.2555 23.5229 15.7476 26.6545C15.2031 30.0089 18.3846 34.5859 18.4136 34.8882C18.6391 37.2431 17.83 39.1346 17.747 38.9495C16.7473 36.7155 13.1965 37.9403 14.5558 34.8067C15.6051 32.3874 12.6529 32.4597 12.4593 25.647C12.3504 21.8036 17.2448 11.4116 30.9845 11.0884Z" fill="#552542"/>
<path fill-rule="evenodd" clip-rule="evenodd" d="M120.188 11.0942H125.285V33.6075H120.188V11.0942Z" fill="#A05AA0"/>
<path fill-rule="evenodd" clip-rule="evenodd" d="M128.232 15.9284H131.797L132.18 17.1201C132.387 16.9549 133.772 15.597 135.716 15.597C138.25 15.597 139.075 17.8816 139.075 22.1524V33.6076H134.538V23.1458C134.538 20.4643 134.39 20.0338 133.625 20.0338C133.241 20.0338 132.829 20.2653 132.711 20.3979V33.6079H128.232V15.9284V15.9284Z" fill="#A05AA0"/>
<path fill-rule="evenodd" clip-rule="evenodd" d="M142.287 20.0997H141.049V15.9283H142.788L143.554 12.4518H146.854V15.9283H149.271V20.1H146.854V27.4166C146.854 29.2706 147.061 29.535 147.65 29.535C148.386 29.535 149.212 29.3698 149.212 29.3698L149.24 33.5087C149.24 33.5087 147.768 33.9388 146.117 33.9388C142.758 33.9388 142.287 31.9528 142.287 27.2179V20.0997Z" fill="#A05AA0"/>
<path fill-rule="evenodd" clip-rule="evenodd" d="M157.403 29.535C159.583 29.535 161.587 29.2707 161.587 29.2707L161.616 33.3761C161.616 33.3761 159.348 33.9389 156.636 33.9389C152.747 33.9389 151.156 31.2239 151.156 24.7676C151.156 18.6431 152.512 15.597 156.666 15.597C160.585 15.597 161.882 18.4112 161.882 23.4105C161.882 25.1321 161.793 26.4562 161.793 26.4562H155.576C155.576 28.7078 155.988 29.535 157.403 29.535ZM157.904 23.4104C157.904 23.0791 157.934 22.7152 157.934 22.4171C157.934 20.0997 157.344 19.6692 156.666 19.6692C155.842 19.6692 155.37 20.0997 155.37 23.4104H157.904Z" fill="#A05AA0"/>
<path fill-rule="evenodd" clip-rule="evenodd" d="M164.268 15.9284H167.803L168.275 17.2856C168.393 17.0206 169.277 15.597 170.986 15.597C171.547 15.597 172.136 15.6962 172.136 15.6962L172.106 20.1993C172.106 20.1993 171.575 20.1329 170.869 20.1329C169.631 20.1329 169.041 20.7949 168.924 20.9273V33.6076H164.269V15.9284H164.268Z" fill="#A05AA0"/>
<path fill-rule="evenodd" clip-rule="evenodd" d="M173.873 15.9284H177.438L177.822 17.1201C178.028 16.9549 179.413 15.597 181.357 15.597C183.891 15.597 184.717 17.8816 184.717 22.1524V33.6076H180.179V23.1458C180.179 20.4643 180.032 20.0338 179.265 20.0338C178.882 20.0338 178.47 20.2653 178.351 20.3979V33.6079H173.873V15.9284H173.873Z" fill="#A05AA0"/>
<path fill-rule="evenodd" clip-rule="evenodd" d="M193.203 29.535C195.383 29.535 197.387 29.2707 197.387 29.2707L197.417 33.3761C197.417 33.3761 195.148 33.9389 192.437 33.9389C188.548 33.9389 186.957 31.2239 186.957 24.7676C186.957 18.6431 188.312 15.597 192.467 15.597C196.386 15.597 197.683 18.4112 197.683 23.4105C197.683 25.1321 197.594 26.4562 197.594 26.4562H191.377C191.376 28.7078 191.788 29.535 193.203 29.535ZM193.703 23.4104C193.703 23.0791 193.733 22.7152 193.733 22.4171C193.733 20.0997 193.144 19.6692 192.466 19.6692C191.641 19.6692 191.169 20.0997 191.169 23.4104H193.703Z" fill="#A05AA0"/>
<path fill-rule="evenodd" clip-rule="evenodd" d="M200.686 20.0997H199.448V15.9283H201.188L201.954 12.4518H205.254V15.9283H207.67V20.1H205.254V27.4166C205.254 29.2706 205.46 29.535 206.05 29.535C206.786 29.535 207.611 29.3698 207.611 29.3698L207.641 33.5087C207.641 33.5087 206.167 33.9388 204.517 33.9388C201.158 33.9388 200.686 31.9528 200.686 27.2179V20.0997H200.686Z" fill="#A05AA0"/>
<path fill-rule="evenodd" clip-rule="evenodd" d="M217.778 10.5385H226.132L229.812 33.052H224.143L223.513 27.821H220.364L219.7 33.052H214.098L217.778 10.5385ZM223.248 23.7819L222.717 19.8086C222.287 16.4322 222.054 13.2207 222.054 13.2207H221.822C221.822 13.2207 221.624 16.4322 221.193 19.8086L220.662 23.7819H223.248Z" fill="#552542"/>
<path fill-rule="evenodd" clip-rule="evenodd" d="M230.85 24.2124C230.85 17.1933 231.447 15.0411 236.917 15.0411C238.707 15.0411 240.464 15.3725 240.464 15.3725V19.577C240.464 19.577 239.005 19.4447 237.514 19.4447C236.254 19.4447 236.188 20.1067 236.188 24.2124C236.188 28.2843 236.254 28.9798 237.514 28.9798C239.005 28.9798 240.464 28.8474 240.464 28.8474V33.0188C240.464 33.0188 238.707 33.3827 236.884 33.3827C231.447 33.3827 230.85 31.2311 230.85 24.2124Z" fill="#552542"/>
<path fill-rule="evenodd" clip-rule="evenodd" d="M242.191 27.3245C242.191 23.8808 243.053 22.1591 246.965 22.1591C248.059 22.1591 248.556 22.2921 249.219 22.3246V21.53C249.219 19.8083 248.855 19.4779 247.363 19.4779C245.672 19.4779 244.346 19.5771 243.351 19.6103V15.3722C243.351 15.3722 246.568 15.0409 248.291 15.0409C253.429 15.0409 254.358 17.2919 254.358 21.9273V33.0517H250.28L249.85 31.8601C249.65 32.0252 248.126 33.3824 245.971 33.3824C244.214 33.3824 242.191 32.3237 242.191 28.019V27.3245ZM248.258 29.2778C248.689 29.2778 249.219 28.9799 249.319 28.8476V25.437C249.12 25.3714 248.656 25.2712 248.258 25.2712C247.496 25.2712 247.197 25.6364 247.197 27.0931V27.2914C247.197 28.8144 247.429 29.2778 248.258 29.2778Z" fill="#552542"/>
<path fill-rule="evenodd" clip-rule="evenodd" d="M256.414 25.9338V22.59C256.414 17.7559 257.143 15.0412 260.259 15.0412C262.182 15.0412 263.475 16.0681 263.442 16.1009V9.90967H268.646V33.0521H264.569L264.138 31.8604C264.006 31.9592 262.414 33.3827 260.259 33.3827C256.977 33.3827 256.414 30.8342 256.414 25.9338ZM263.508 28.6161V19.8421C263.376 19.677 262.978 19.4783 262.513 19.4783C261.718 19.4783 261.486 19.7765 261.486 23.3515V25.1392C261.486 28.6817 261.718 28.9802 262.513 28.9802C262.978 28.9799 263.376 28.7484 263.508 28.6161Z" fill="#552542"/>
<path fill-rule="evenodd" clip-rule="evenodd" d="M277.549 28.9798C280.002 28.9798 282.256 28.7148 282.256 28.7148L282.289 32.8205C282.289 32.8205 279.736 33.3827 276.686 33.3827C272.311 33.3827 270.52 30.668 270.52 24.2124C270.52 18.0872 272.046 15.0411 276.72 15.0411C281.128 15.0411 282.588 17.8553 282.588 22.8546C282.588 24.5762 282.489 25.9002 282.489 25.9002H275.493C275.493 28.1519 275.957 28.9798 277.549 28.9798ZM278.112 22.855C278.112 22.5233 278.146 22.1595 278.146 21.8623C278.146 19.5439 277.483 19.1141 276.72 19.1141C275.792 19.1141 275.262 19.5439 275.262 22.855H278.112Z" fill="#552542"/>
<path fill-rule="evenodd" clip-rule="evenodd" d="M285.075 15.3725H289.086L289.516 16.5642C289.782 16.3327 291.439 15.0411 293.329 15.0411C295.218 15.0411 296.08 15.9685 296.577 16.6968C296.876 16.4322 298.467 15.0411 300.655 15.0411C303.804 15.0411 304.434 17.6898 304.434 21.696V33.052H299.33V22.4907C299.33 20.041 299.164 19.4779 298.269 19.4779C297.904 19.4779 297.341 19.7429 297.242 19.8752V33.052H292.168V20.0075C292.069 19.7429 291.771 19.4779 291.208 19.4779C290.677 19.4779 290.312 19.6765 290.114 19.8417V33.0517H285.074V15.3725H285.075Z" fill="#552542"/>
<path fill-rule="evenodd" clip-rule="evenodd" d="M309.673 34.5423C310.899 34.5423 311.629 33.9463 311.761 32.5559L308.347 32.2246L305.927 15.3726H311.131L311.994 23.4178C312.292 26.0993 312.689 30.668 312.689 30.7016H312.922C312.922 30.4034 313.386 26.0993 313.718 23.385L314.745 15.3729H319.983L317.397 30.7351C316.038 37.6878 313.054 38.8466 309.905 38.8466C308.081 38.8466 306.491 38.4818 306.491 38.4818L306.524 34.3764C306.524 34.3761 308.314 34.5423 309.673 34.5423Z" fill="#552542"/>
</svg>
